<svg width="120" height="120" viewBox="0 0 120 120" fill="none" xmlns="http://www.w3.org/2000/svg">
<path d="M66.5834 55.8866C64.3989 55.8866 62.6742 57.7646 62.6742 60.1024C62.6742 62.4403 64.4372 64.3183 66.5834 64.3183C68.768 64.3183 70.4927 62.4403 70.4927 60.1024C70.4927 57.7646 68.7297 55.8866 66.5834 55.8866ZM52.5945 55.8866C50.41 55.8866 48.6853 57.7646 48.6853 60.1024C48.6853 62.4403 50.4483 64.3183 52.5945 64.3183C54.7791 64.3183 56.5038 62.4403 56.5038 60.1024C56.5421 57.7646 54.7791 55.8866 52.5945 55.8866Z" fill="#1F213A"/>
<path d="M85.2133 24H33.8568C29.526 24 26 27.526 26 31.8568V83.2133C26 87.5441 29.526 91.0701 33.8568 91.0701H77.3182L75.2869 84.0565L80.1926 88.5789L84.8301 92.8331L93.1084 100V31.8568C93.0701 27.526 89.5441 24 85.2133 24ZM70.4196 73.6319C70.4196 73.6319 69.0398 71.9839 67.8901 70.5658C72.9107 69.1478 74.827 66.0434 74.827 66.0434C73.2557 67.0782 71.761 67.8064 70.4196 68.3046C68.5033 69.1094 66.6636 69.6077 64.8623 69.9526C61.1831 70.6425 57.8104 70.4508 54.936 69.9143C52.7514 69.4927 50.8734 68.9178 49.3021 68.2663C48.4206 67.9213 47.4624 67.4998 46.5043 66.9632C46.3893 66.8865 46.2743 66.8482 46.1594 66.7716C46.0827 66.7332 46.0444 66.6949 46.0061 66.6949C45.3162 66.3117 44.9329 66.0434 44.9329 66.0434C44.9329 66.0434 46.7726 69.0711 51.6399 70.5275C50.4902 71.9839 49.0721 73.6702 49.0721 73.6702C40.6021 73.4019 37.3828 67.883 37.3828 67.883C37.3828 55.6571 42.9017 45.7307 42.9017 45.7307C48.4206 41.6299 53.6329 41.7448 53.6329 41.7448L54.0161 42.2047C47.1175 44.1594 43.9748 47.1871 43.9748 47.1871C43.9748 47.1871 44.818 46.7272 46.236 46.114C50.3369 44.3127 53.5946 43.8528 54.936 43.6994C55.1659 43.6611 55.3575 43.6228 55.5875 43.6228C57.9254 43.3162 60.5698 43.2395 63.3293 43.5461C66.9703 43.9677 70.8795 45.0408 74.8654 47.1871C74.8654 47.1871 71.8376 44.3127 65.3222 42.358L65.8588 41.7448C65.8588 41.7448 71.1094 41.6299 76.59 45.7307C76.59 45.7307 82.1089 55.6571 82.1089 67.883C82.1089 67.8447 78.8896 73.3636 70.4196 73.6319Z" fill="#1F213A"/>
</svg>
