<svg preserveAspectRatio="none" viewBox="0 0 1479 427" fill="none" xmlns="http://www.w3.org/2000/svg">
<g clip-path="url(#clip0)">
<path d="M3.58398 316.889C97.0987 301.702 321.5 245.832 470.987 143.853C657.846 16.3795 655.286 17.9182 719.791 8.70326C784.295 -0.511697 887.708 -6.65525 1027.47 166.891C1135.41 300.932 1368.93 251.873 1469.27 213.478" stroke="#F4A171" stroke-width="1.02388"/>
<path d="M326.107 146.415C144.88 243.172 48.1225 207.336 0 201.193V426.448C311.261 411.089 541.123 153.583 625.593 77.3032C693.169 16.2798 763.027 4.43683 789.509 6.1433C772.9 2.74802 747.425 0 710.063 0C618.426 0 507.334 49.6584 326.107 146.415Z" fill="url(#paint0_linear)"/>
<path d="M1101.19 123.89C1047.43 125.426 1023.37 117.235 980.369 99.3167L983.441 109.556L999.311 137.712L1106.31 213.48L1479 296.926V48.1225C1285.49 128.497 1154.94 122.354 1101.19 123.89Z" fill="url(#paint1_linear)"/>
<path d="M1407.33 350.68C1030.54 326.107 1005.45 134.129 895.898 44.027C977.297 86.5182 1014.16 153.583 1187.71 161.774C1281.9 161.774 1421.15 120.477 1479 99.8287V346.806C1456.72 350.327 1432.75 351.907 1407.33 350.68Z" fill="url(#paint2_linear)"/>
</g>
<defs>
<linearGradient id="paint0_linear" x1="0" y1="268.283" x2="834.02" y2="268.283" gradientUnits="userSpaceOnUse">
<stop stop-color="#4C386D"/>
<stop offset="0.455215" stop-color="#B75E66"/>
<stop offset="0.790213" stop-color="#F3A171"/>
</linearGradient>
<linearGradient id="paint1_linear" x1="957.868" y1="187.1" x2="1485.13" y2="206.166" gradientUnits="userSpaceOnUse">
<stop offset="0.0885417" stop-color="#F9B38A"/>
<stop offset="0.526042" stop-color="#B75E66"/>
<stop offset="1" stop-color="#4C386D"/>
</linearGradient>
<linearGradient id="paint2_linear" x1="865.901" y1="216.733" x2="1484.46" y2="238.079" gradientUnits="userSpaceOnUse">
<stop stop-color="#FEBF9A"/>
<stop offset="0.104167" stop-color="#F3A171"/>
<stop offset="0.447917" stop-color="#B75E66"/>
<stop offset="1" stop-color="#4C386D"/>
</linearGradient>
<clipPath id="clip0">
<rect width="1479" height="426.448" fill="white"/>
</clipPath>
</defs>
</svg>
