<svg preserveAspectRatio="none" viewBox="0 0 1479 247" fill="none" xmlns="http://www.w3.org/2000/svg">
<g clip-path="url(#clip0)">
<path d="M1.5 105.753C90.8333 101.587 296.498 94.2793 399 117.253C544 149.753 651 181.253 870 95.753C1033.97 31.7385 1334.67 74.7531 1459.5 110.753" stroke="#F4A171"/>
<path d="M519 142.253C385 119.253 215.5 39.2529 0 18.2529V187.253C160 130.253 470.5 134.253 519 142.253Z" fill="url(#paint0_linear)"/>
<path d="M943 68.2529C909 80.6529 809.833 114.42 765 130.253C1036.2 68.6529 1353.67 182.253 1478.5 246.753V13.2529C1446 3.25292 1343.5 -2.74708 1246.5 1.25292C1149.5 5.25292 985.5 52.7529 943 68.2529Z" fill="url(#paint1_linear)"/>
</g>
<defs>
<linearGradient id="paint0_linear" x1="0" y1="124.573" x2="548.26" y2="124.573" gradientUnits="userSpaceOnUse">
<stop stop-color="#2A1D38"/>
<stop offset="0.455215" stop-color="#B75E66"/>
<stop offset="0.790213" stop-color="#F3A171"/>
</linearGradient>
<linearGradient id="paint1_linear" x1="728.294" y1="138.784" x2="1484" y2="178.495" gradientUnits="userSpaceOnUse">
<stop stop-color="#3E3456"/>
<stop offset="0.0001" stop-color="#F3A171"/>
<stop offset="0.380208" stop-color="#B75E66"/>
<stop offset="1" stop-color="#2A1D38"/>
</linearGradient>
<clipPath id="clip0">
<rect width="1478.5" height="246.753" fill="white"/>
</clipPath>
</defs>
</svg>
