<svg width="120" height="120" viewBox="0 0 120 120" fill="none" xmlns="http://www.w3.org/2000/svg">
<path d="M80.0702 20.0166L69.738 20C58.1302 20 50.6287 27.7276 50.6287 39.6881V48.7656H40.2401C39.3424 48.7656 38.6155 49.4964 38.6155 50.3977V63.55C38.6155 64.4514 39.3432 65.1813 40.2401 65.1813H50.6287V98.3688C50.6287 99.2701 51.3556 100 52.2533 100H65.8074C66.7051 100 67.432 99.2693 67.432 98.3688V65.1813H79.5787C80.4763 65.1813 81.2033 64.4514 81.2033 63.55L81.2083 50.3977C81.2083 49.9649 81.0367 49.5505 80.7325 49.2442C80.4283 48.9379 80.0138 48.7656 79.5828 48.7656H67.432V41.0705C67.432 37.3719 68.3098 35.4943 73.1083 35.4943L80.0685 35.4918C80.9654 35.4918 81.6923 34.7611 81.6923 33.8606V21.6479C81.6923 20.7482 80.9662 20.0183 80.0702 20.0166Z" fill="#1F213A"/>
</svg>
