<svg width="184" height="150" viewBox="0 0 184 150" fill="none" xmlns="http://www.w3.org/2000/svg">
<g clip-path="url(#clip0)">
<path d="M91.6896 103.38C91.1955 103.383 90.7095 103.255 90.281 103.009C89.8524 102.763 89.4966 102.408 89.2496 101.98L32.8096 4.22C32.5646 3.79173 32.4363 3.30669 32.4375 2.81333C32.4387 2.31997 32.5693 1.83554 32.8162 1.40844C33.0632 0.981326 33.4178 0.62648 33.8448 0.379333C34.2718 0.132186 34.7562 0.00138764 35.2496 0H148.13C148.622 0.00312724 149.105 0.135192 149.531 0.38305C149.956 0.630907 150.31 0.985913 150.555 1.41273C150.801 1.83955 150.931 2.3233 150.932 2.81582C150.932 3.30834 150.804 3.79246 150.56 4.22L94.1296 101.98C93.8802 102.406 93.5239 102.759 93.0958 103.005C92.6678 103.25 92.183 103.38 91.6896 103.38V103.38ZM40.1196 5.63L91.6896 94.94L143.25 5.63H40.1196Z" fill="#FFF4E3"/>
<path d="M0 129.86H7.94C11.72 129.86 14.57 131.99 14.57 135.99C14.57 138.99 12.57 142.07 8.13 142.07H3.62V149.38H0V129.86ZM7.5 139C9.61 139 11.01 138 11.01 136C11.01 133.7 9.47 133 7.45 133H3.62V139.07L7.5 139Z" fill="#FFF4E3"/>
<path d="M23.8196 129.83H27.1596L34.3596 149.38H30.4996L29.0696 145.22H21.6196L20.1396 149.38H16.5596L23.8196 129.83ZM28.0296 142.1L25.3796 134.27H25.3196L22.6196 142.1H28.0296Z" fill="#FFF4E3"/>
<path d="M39.9199 129.86H43.4499L51.9399 143.17V129.86H55.4499V149.38H51.9399L43.4699 136.05H43.4199V149.38H39.9199V129.86Z" fill="#FFF4E3"/>
<path d="M62.1699 129.86H65.8199V149.38H62.1699V129.86Z" fill="#FFF4E3"/>
<path d="M72.5 129.86H76.93L81.93 142.07H81.98L86.89 129.86H91.32V149.38H87.82V136.38H87.76L83.33 147.14H80.49L76.06 136.43H76V149.38H72.5V129.86Z" fill="#FFF4E3"/>
<path d="M103.62 129.83H106.96L114.16 149.38H110.3L108.87 145.22H101.43L99.9501 149.38H96.3701L103.62 129.83ZM107.83 142.1L105.18 134.27H105.12L102.44 142.1H107.83Z" fill="#FFF4E3"/>
<path d="M121.37 132.98H115.75V129.86H130.62V132.98H125.01V149.38H121.4L121.37 132.98Z" fill="#FFF4E3"/>
<path d="M136.04 129.86H139.68V149.38H136.04V129.86Z" fill="#FFF4E3"/>
<path d="M145.87 142.97V136.71C145.87 132.08 149.81 129.51 153.67 129.51C157.92 129.51 161.61 132.28 161.61 136.63V142.49C161.61 147.12 157.67 149.69 153.81 149.69C149.62 149.71 145.87 147.33 145.87 142.97ZM158 142.7V136.46C158 134.1 156 132.76 153.67 132.76C151.81 132.76 149.48 133.76 149.48 136.54V142.78C149.48 145.14 151.48 146.48 153.81 146.48C155.67 146.48 158 145.49 158 142.71V142.7Z" fill="#FFF4E3"/>
<path d="M167.8 129.86H171.33L179.82 143.17H179.87V129.86H183.38V149.38H179.82L171.36 136.05H171.31V149.38H167.8V129.86Z" fill="#FFF4E3"/>
</g>
<defs>
<clipPath id="clip0">
<rect width="183.38" height="149.69" fill="white"/>
</clipPath>
</defs>
</svg>
