<svg width="32" height="10" viewBox="0 0 32 10" fill="none" xmlns="http://www.w3.org/2000/svg">
<g clip-path="url(#clip0)">
<path d="M-9.11914 6.33366C-6.9637 8.00032 -4.64246 10.0003 3.0458e-05 10.0003C4.64252 10.0003 6.96376 8.00032 9.1192 6.33366C10.943 4.66699 12.6011 3.33366 16.0829 3.33366C19.5648 3.33366 21.057 4.66699 23.0467 6.33366C25.2021 8.00032 27.5233 10.0003 32.1658 10.0003C36.8083 10.0003 39.1296 8.00032 41.285 6.33366L38.9638 4.83366C37.1399 6.50033 35.4819 7.83366 32 7.83366C28.5182 7.83366 27.0259 6.50033 25.0363 4.83366C23.0467 3.16699 20.5596 1.16699 16.0829 1.16699C11.4404 1.16699 9.1192 3.16699 6.96376 4.83366C4.97412 6.50033 3.4819 7.83366 3.0458e-05 7.83366C-3.48183 7.83366 -4.97406 6.50033 -6.9637 4.83366L-9.11914 6.33366Z" fill="black"/>
</g>
<defs>
<clipPath id="clip0">
<rect width="32" height="10" fill="white"/>
</clipPath>
</defs>
</svg>
